<svg width="512" height="512" viewBox="0 0 512 512" fill="none" xmlns="http://www.w3.org/2000/svg">
<g clip-path="url(#clip0_455_39)">
<path d="M426.667 0H85.3333C62.7015 0 40.9967 8.99045 24.9936 24.9936C8.99045 40.9967 0 62.7015 0 85.3333L0 341.333C0 363.965 8.99045 385.67 24.9936 401.673C40.9967 417.676 62.7015 426.667 85.3333 426.667H147.2L242.155 506.944C246.007 510.204 250.89 511.993 255.936 511.993C260.982 511.993 265.865 510.204 269.717 506.944L364.8 426.667H426.667C449.298 426.667 471.003 417.676 487.006 401.673C503.01 385.67 512 363.965 512 341.333V85.3333C512 62.7015 503.01 40.9967 487.006 24.9936C471.003 8.99045 449.298 0 426.667 0ZM469.333 341.333C469.333 352.649 464.838 363.502 456.837 371.503C448.835 379.505 437.983 384 426.667 384H364.8C354.716 384.003 344.958 387.578 337.259 394.091L256 462.72L174.784 394.091C167.073 387.569 157.299 383.993 147.2 384H85.3333C74.0174 384 63.165 379.505 55.1634 371.503C47.1619 363.502 42.6667 352.649 42.6667 341.333V85.3333C42.6667 74.0174 47.1619 63.165 55.1634 55.1634C63.165 47.1619 74.0174 42.6667 85.3333 42.6667H426.667C437.983 42.6667 448.835 47.1619 456.837 55.1634C464.838 63.165 469.333 74.0174 469.333 85.3333V341.333Z" fill="white"/>
<path d="M149.333 149.335H256C261.658 149.335 267.084 147.087 271.085 143.086C275.086 139.085 277.333 133.659 277.333 128.001C277.333 122.343 275.086 116.917 271.085 112.916C267.084 108.916 261.658 106.668 256 106.668H149.333C143.675 106.668 138.249 108.916 134.248 112.916C130.248 116.917 128 122.343 128 128.001C128 133.659 130.248 139.085 134.248 143.086C138.249 147.087 143.675 149.335 149.333 149.335Z" fill="white"/>
<path d="M362.667 192H149.333C143.675 192 138.249 194.248 134.248 198.248C130.248 202.249 128 207.675 128 213.333C128 218.991 130.248 224.417 134.248 228.418C138.249 232.419 143.675 234.667 149.333 234.667H362.667C368.325 234.667 373.751 232.419 377.752 228.418C381.752 224.417 384 218.991 384 213.333C384 207.675 381.752 202.249 377.752 198.248C373.751 194.248 368.325 192 362.667 192Z" fill="white"/>
<path d="M362.667 277.332H149.333C143.675 277.332 138.249 279.58 134.248 283.58C130.248 287.581 128 293.007 128 298.665C128 304.323 130.248 309.75 134.248 313.75C138.249 317.751 143.675 319.999 149.333 319.999H362.667C368.325 319.999 373.751 317.751 377.752 313.75C381.752 309.75 384 304.323 384 298.665C384 293.007 381.752 287.581 377.752 283.58C373.751 279.58 368.325 277.332 362.667 277.332Z" fill="white"/>
</g>
<defs>
<clipPath id="clip0_455_39">
<rect width="512" height="512" fill="white"/>
</clipPath>
</defs>
</svg>
