<svg width="512" height="512" viewBox="0 0 512 512" fill="none" xmlns="http://www.w3.org/2000/svg">
<g clip-path="url(#clip0_459_7)">
<path d="M255.999 0C188.126 0.0734097 123.054 27.0683 75.0606 75.0617C27.0672 123.055 0.0722869 188.127 -0.00112289 256C-2.68912 460.224 238.058 585.152 403.199 465.429C405.572 463.851 407.605 461.813 409.177 459.435C410.75 457.058 411.83 454.39 412.353 451.588C412.877 448.787 412.835 445.908 412.228 443.124C411.621 440.339 410.462 437.704 408.819 435.374C407.177 433.045 405.085 431.068 402.666 429.561C400.246 428.053 397.55 427.046 394.735 426.598C391.92 426.151 389.044 426.271 386.277 426.954C383.51 427.636 380.907 428.866 378.623 430.571C241.066 530.261 40.5322 426.197 42.6655 256C54.3775 -27.008 457.663 -26.944 469.332 256V298.667C469.332 309.983 464.837 320.835 456.835 328.837C448.834 336.838 437.981 341.333 426.666 341.333C415.35 341.333 404.497 336.838 396.496 328.837C388.494 320.835 383.999 309.983 383.999 298.667V256C378.623 86.848 133.354 86.8693 127.999 256C128.247 281.941 136.35 307.198 151.239 328.443C166.128 349.687 187.105 365.922 211.405 375.006C235.705 384.091 262.187 385.6 287.361 379.333C312.535 373.067 335.22 359.32 352.426 339.904C361.68 356.237 376.062 369.063 393.345 376.395C410.627 383.726 429.844 385.154 448.02 380.457C466.196 375.76 482.316 365.2 493.882 350.413C505.449 335.627 511.816 317.439 511.999 298.667V256C511.926 188.127 484.931 123.055 436.937 75.0617C388.944 27.0683 323.872 0.0734097 255.999 0ZM255.999 341.333C233.367 341.333 211.662 332.343 195.659 316.34C179.656 300.337 170.666 278.632 170.666 256C170.666 233.368 179.656 211.663 195.659 195.66C211.662 179.657 233.367 170.667 255.999 170.667C278.631 170.667 300.336 179.657 316.339 195.66C332.342 211.663 341.332 233.368 341.332 256C341.332 278.632 332.342 300.337 316.339 316.34C300.336 332.343 278.631 341.333 255.999 341.333Z" fill="white"/>
</g>
<defs>
<clipPath id="clip0_459_7">
<rect width="512" height="512" fill="white"/>
</clipPath>
</defs>
</svg>
