<svg width="512" height="512" viewBox="0 0 512 512" fill="none" xmlns="http://www.w3.org/2000/svg">
<g clip-path="url(#clip0_455_31)">
<path d="M405.333 21.332H106.667C78.3873 21.3659 51.2759 32.6148 31.2794 52.6114C11.2828 72.6079 0.0338743 99.7193 0 127.999L0 383.999C0.0338743 412.278 11.2828 439.389 31.2794 459.386C51.2759 479.383 78.3873 490.632 106.667 490.665H405.333C433.613 490.632 460.724 479.383 480.721 459.386C500.717 439.389 511.966 412.278 512 383.999V127.999C511.966 99.7193 500.717 72.6079 480.721 52.6114C460.724 32.6148 433.613 21.3659 405.333 21.332ZM106.667 63.9987H405.333C418.107 64.0238 430.582 67.871 441.151 75.0452C451.72 82.2194 459.901 92.3922 464.64 104.255L301.269 267.647C289.246 279.621 272.969 286.345 256 286.345C239.031 286.345 222.754 279.621 210.731 267.647L47.36 104.255C52.0992 92.3922 60.2798 82.2194 70.849 75.0452C81.4183 67.871 93.8926 64.0238 106.667 63.9987ZM405.333 447.999H106.667C89.6928 447.999 73.4142 441.256 61.4118 429.254C49.4095 417.251 42.6667 400.973 42.6667 383.999V159.999L180.565 297.812C200.589 317.785 227.717 329.002 256 329.002C284.283 329.002 311.411 317.785 331.435 297.812L469.333 159.999V383.999C469.333 400.973 462.591 417.251 450.588 429.254C438.586 441.256 422.307 447.999 405.333 447.999Z" fill="white"/>
</g>
<defs>
<clipPath id="clip0_455_31">
<rect width="512" height="512" fill="white"/>
</clipPath>
</defs>
</svg>
