<svg width="512" height="512" viewBox="0 0 512 512" fill="none" xmlns="http://www.w3.org/2000/svg">
<g clip-path="url(#clip0_456_2)">
<path d="M330.176 397.012C330.176 369.642 312.939 353.727 279.894 325.674C272.427 319.274 264.363 312.49 256.043 304.938C246.55 313.663 237.526 321.343 229.248 328.404C196.267 356.266 181.824 369.898 181.824 397.012C181.824 416.685 189.639 435.552 203.55 449.463C217.461 463.373 236.328 471.188 256 471.188C275.673 471.188 294.54 463.373 308.451 449.463C322.361 435.552 330.176 416.685 330.176 397.012Z" fill="white"/>
<path d="M350.037 86.08C324.437 64.3413 297.984 41.8773 271.232 15.1467L256 0L241.067 15.168C192.981 63.424 170.24 137.536 160.384 181.995C152.821 170.284 147.208 157.423 143.765 143.915L134.656 108.992L108.352 133.675C62.2932 176.939 31.5518 219.84 31.5518 288.533C31.109 338.102 47.2438 386.397 77.3927 425.745C107.542 465.093 149.975 493.238 197.952 505.707C210.007 508.761 222.283 510.865 234.667 512C207.814 506.996 183.554 492.765 166.083 471.768C148.611 450.771 139.027 424.328 138.987 397.013C138.987 349.013 167.936 324.48 201.451 295.851C213.419 285.675 227.051 274.133 240.811 260.288L256 245.184L271.104 260.288C283.392 272.576 295.68 282.987 307.563 293.099C341.184 321.621 372.928 348.565 372.928 397.013C372.894 424.221 363.386 450.567 346.039 471.527C328.692 492.487 304.588 506.752 277.867 511.872C333.345 506.489 384.829 480.635 422.279 439.351C459.729 398.068 480.459 344.315 480.427 288.576C480.427 196.8 419.989 145.493 350.037 86.08Z" fill="white"/>
</g>
<defs>
<clipPath id="clip0_456_2">
<rect width="512" height="512" fill="white"/>
</clipPath>
</defs>
</svg>
