<svg width="512" height="512" viewBox="0 0 512 512" fill="none" xmlns="http://www.w3.org/2000/svg">
<g clip-path="url(#clip0_463_84)">
<path d="M277.333 21.3333V64C277.333 69.658 275.086 75.0842 271.085 79.0849C267.084 83.0857 261.658 85.3333 256 85.3333C250.342 85.3333 244.916 83.0857 240.915 79.0849C236.914 75.0842 234.667 69.658 234.667 64V21.3333C234.667 15.6754 236.914 10.2492 240.915 6.24839C244.916 2.24761 250.342 0 256 0C261.658 0 267.084 2.24761 271.085 6.24839C275.086 10.2492 277.333 15.6754 277.333 21.3333ZM256 426.667C250.342 426.667 244.916 428.914 240.915 432.915C236.914 436.916 234.667 442.342 234.667 448V490.667C234.667 496.325 236.914 501.751 240.915 505.752C244.916 509.752 250.342 512 256 512C261.658 512 267.084 509.752 271.085 505.752C275.086 501.751 277.333 496.325 277.333 490.667V448C277.333 442.342 275.086 436.916 271.085 432.915C267.084 428.914 261.658 426.667 256 426.667ZM85.3333 256C85.3333 250.342 83.0857 244.916 79.0849 240.915C75.0842 236.914 69.658 234.667 64 234.667H21.3333C15.6754 234.667 10.2492 236.914 6.24839 240.915C2.24761 244.916 0 250.342 0 256C0 261.658 2.24761 267.084 6.24839 271.085C10.2492 275.086 15.6754 277.333 21.3333 277.333H64C69.658 277.333 75.0842 275.086 79.0849 271.085C83.0857 267.084 85.3333 261.658 85.3333 256ZM490.667 234.667H448C442.342 234.667 436.916 236.914 432.915 240.915C428.914 244.916 426.667 250.342 426.667 256C426.667 261.658 428.914 267.084 432.915 271.085C436.916 275.086 442.342 277.333 448 277.333H490.667C496.325 277.333 501.751 275.086 505.752 271.085C509.752 267.084 512 261.658 512 256C512 250.342 509.752 244.916 505.752 240.915C501.751 236.914 496.325 234.667 490.667 234.667ZM384.384 34.5173C381.96 33.1115 379.282 32.1972 376.504 31.8267C373.726 31.4561 370.902 31.6365 368.194 32.3577C365.486 33.0788 362.946 34.3265 360.72 36.0295C358.494 37.7325 356.626 39.8573 355.221 42.2827L333.888 79.2107C331.057 84.1079 330.288 89.9288 331.748 95.3935C333.208 100.858 336.779 105.519 341.675 108.352C344.91 110.244 348.593 111.239 352.341 111.232C356.086 111.232 359.765 110.246 363.008 108.374C366.251 106.501 368.944 103.808 370.816 100.565L392.149 63.6373C394.975 58.7446 395.744 52.9308 394.289 47.4715C392.833 42.0122 389.271 37.3534 384.384 34.5173ZM170.389 403.648C165.495 400.816 159.676 400.043 154.211 401.499C148.747 402.955 144.084 406.521 141.248 411.413L119.915 448.341C117.082 453.236 116.309 459.055 117.765 464.519C119.221 469.984 122.788 474.646 127.68 477.483C130.917 479.373 134.598 480.367 138.347 480.363C142.095 480.366 145.778 479.382 149.025 477.51C152.272 475.637 154.969 472.942 156.843 469.696L178.176 432.768C181 427.873 181.766 422.057 180.306 416.597C178.846 411.138 175.28 406.481 170.389 403.648ZM100.587 141.248L63.6587 119.915C58.7745 117.286 53.0586 116.663 47.7229 118.178C42.3872 119.693 37.8513 123.226 35.0768 128.029C32.3022 132.832 31.5073 138.526 32.8604 143.905C34.2136 149.284 37.6085 153.925 42.3253 156.843L79.2533 178.176C84.1375 180.804 89.8534 181.427 95.1891 179.912C100.525 178.398 105.061 174.864 107.835 170.062C110.61 165.259 111.405 159.564 110.052 154.186C108.698 148.807 105.304 144.166 100.587 141.248ZM469.653 355.221L432.725 333.888C427.841 331.26 422.125 330.637 416.79 332.152C411.454 333.666 406.918 337.2 404.143 342.002C401.369 346.805 400.574 352.5 401.927 357.879C403.28 363.257 406.675 367.898 411.392 370.816L448.32 392.149C451.556 394.042 455.238 395.036 458.987 395.029C463.683 395.029 468.247 393.479 471.973 390.621C475.699 387.762 478.377 383.754 479.592 379.218C480.808 374.682 480.492 369.871 478.695 365.533C476.898 361.194 473.72 357.57 469.653 355.221ZM156.779 42.2827C153.861 37.5658 149.22 34.1709 143.841 32.8178C138.462 31.4646 132.768 32.2596 127.965 35.0341C123.162 37.8086 119.629 42.3446 118.114 47.6802C116.599 53.0159 117.222 58.7318 119.851 63.616L141.184 100.544C143.056 103.787 145.749 106.48 148.992 108.352C152.235 110.225 155.914 111.211 159.659 111.211C163.407 111.217 167.09 110.223 170.325 108.331C175.221 105.498 178.792 100.837 180.252 95.3722C181.712 89.9075 180.943 84.0866 178.112 79.1893L156.779 42.2827ZM370.752 411.349C367.834 406.633 363.193 403.238 357.815 401.884C352.436 400.531 346.741 401.326 341.938 404.101C337.136 406.875 333.602 411.411 332.088 416.747C330.573 422.083 331.196 427.798 333.824 432.683L355.157 469.611C358.075 474.328 362.716 477.722 368.095 479.076C373.474 480.429 379.168 479.634 383.971 476.859C388.774 474.085 392.307 469.549 393.822 464.213C395.337 458.877 394.714 453.162 392.085 448.277L370.752 411.349ZM422.123 180.949C425.868 180.949 429.546 179.963 432.789 178.091L469.717 156.757C474.434 153.839 477.829 149.199 479.182 143.82C480.535 138.441 479.74 132.746 476.966 127.944C474.191 123.141 469.655 119.608 464.32 118.093C458.984 116.578 453.268 117.201 448.384 119.829L411.456 141.163C407.4 143.516 404.232 147.139 402.442 151.474C400.652 155.808 400.34 160.611 401.555 165.14C402.769 169.67 405.442 173.673 409.16 176.53C412.878 179.388 417.433 180.941 422.123 180.949ZM79.2107 333.824L42.2827 355.157C38.2159 357.506 35.0376 361.13 33.2406 365.469C31.4436 369.807 31.1284 374.618 32.3439 379.154C33.5593 383.69 36.2375 387.698 39.963 390.557C43.6886 393.415 48.2533 394.965 52.9493 394.965C56.6979 394.972 60.3802 393.978 63.616 392.085L100.544 370.752C105.261 367.834 108.656 363.193 110.009 357.815C111.362 352.436 110.567 346.741 107.793 341.938C105.018 337.136 100.482 333.602 95.1464 332.088C89.8108 330.573 84.0949 331.196 79.2107 333.824Z" fill="white"/>
</g>
<defs>
<clipPath id="clip0_463_84">
<rect width="512" height="512" fill="white"/>
</clipPath>
</defs>
</svg>
