<svg width="512" height="512" viewBox="0 0 512 512" fill="none" xmlns="http://www.w3.org/2000/svg">
<g clip-path="url(#clip0_459_13)">
<path d="M465.067 119.018L315.733 18.2389C298.117 6.25808 277.305 -0.148438 256 -0.148438C234.695 -0.148437 213.883 6.25808 196.267 18.2389L46.9334 119.018C32.4726 128.792 20.6314 141.966 12.4485 157.383C4.26566 172.8 -0.00884093 189.99 1.37288e-05 207.444V405.332C0.033888 433.612 11.2828 460.723 31.2794 480.72C51.2759 500.716 78.3873 511.965 106.667 511.999H405.333C433.613 511.965 460.724 500.716 480.721 480.72C500.717 460.723 511.966 433.612 512 405.332V207.444C512.009 189.99 507.734 172.8 499.551 157.383C491.369 141.966 479.527 128.792 465.067 119.018ZM469.333 405.332C469.333 422.306 462.591 438.585 450.588 450.587C438.586 462.589 422.307 469.332 405.333 469.332H106.667C89.6928 469.332 73.4142 462.589 61.4119 450.587C49.4095 438.585 42.6667 422.306 42.6667 405.332V207.444C42.6661 196.968 45.2373 186.652 50.1546 177.401C55.072 168.15 62.185 160.248 70.8694 154.388L220.203 53.6096C230.762 46.4356 243.234 42.5999 256 42.5999C268.766 42.5999 281.238 46.4356 291.797 53.6096L441.131 154.388C449.815 160.248 456.928 168.15 461.845 177.401C466.763 186.652 469.334 196.968 469.333 207.444V405.332ZM256 149.46C230.661 149.457 205.891 156.975 184.829 171.061C163.766 185.147 147.358 205.167 137.682 228.586C128.007 252.005 125.501 277.769 130.48 302.614C135.459 327.458 147.701 350.266 165.653 368.148L204.565 406.207C218.354 419.56 236.795 427.026 255.989 427.026C275.184 427.026 293.625 419.56 307.413 406.207L346.517 367.978C364.422 350.076 376.615 327.268 381.555 302.436C386.495 277.604 383.96 251.866 374.271 228.475C364.582 205.084 348.173 185.092 327.121 171.027C306.069 156.963 281.318 149.457 256 149.46ZM316.501 337.642L277.568 375.722C271.782 381.325 264.044 384.458 255.989 384.458C247.935 384.458 240.197 381.325 234.411 375.722L195.648 337.812C183.722 325.885 175.597 310.691 172.301 294.15C169.005 277.608 170.685 260.461 177.129 244.873C183.573 229.286 194.492 215.958 208.506 206.572C222.521 197.187 239.002 192.165 255.869 192.141C272.736 192.117 289.232 197.092 303.272 206.438C317.313 215.784 328.27 229.081 334.757 244.651C341.245 260.22 342.974 277.362 339.725 293.913C336.475 310.464 328.394 325.681 316.501 337.642ZM277.333 277.332C277.333 281.552 276.082 285.676 273.738 289.184C271.394 292.693 268.062 295.427 264.164 297.042C260.266 298.656 255.976 299.079 251.838 298.256C247.7 297.433 243.899 295.401 240.915 292.417C237.932 289.434 235.9 285.632 235.077 281.494C234.253 277.356 234.676 273.067 236.291 269.168C237.905 265.27 240.64 261.938 244.148 259.594C247.656 257.25 251.781 255.999 256 255.999C261.658 255.999 267.084 258.247 271.085 262.247C275.086 266.248 277.333 271.674 277.333 277.332Z" fill="white"/>
</g>
<defs>
<clipPath id="clip0_459_13">
<rect width="512" height="512" fill="white"/>
</clipPath>
</defs>
</svg>
