<svg width="512" height="512" viewBox="0 0 512 512" fill="none" xmlns="http://www.w3.org/2000/svg">
<g clip-path="url(#clip0_459_11)">
<path d="M256 512C114.837 512 0 397.163 0 256C0 114.837 114.837 0 256 0C397.163 0 512 114.837 512 256C512 397.163 397.163 512 256 512ZM256 42.6667C138.368 42.6667 42.6667 138.368 42.6667 256C42.6667 373.632 138.368 469.333 256 469.333C373.632 469.333 469.333 373.632 469.333 256C469.333 138.368 373.632 42.6667 256 42.6667ZM326.144 279.787L288.277 317.653C245.035 301.163 213.163 270.549 194.347 223.723L232.213 185.856L174.357 128L144.96 157.397C133.44 168.896 128 184.043 128 199.147C128 282.645 235.349 384.021 312.875 384.021C327.979 384.021 343.125 378.56 354.624 367.061L384.021 337.664L326.165 279.808L326.144 279.787Z" fill="white"/>
</g>
<defs>
<clipPath id="clip0_459_11">
<rect width="512" height="512" fill="white"/>
</clipPath>
</defs>
</svg>
