<svg width="512" height="512" viewBox="0 0 512 512" fill="none" xmlns="http://www.w3.org/2000/svg">
<g clip-path="url(#clip0_458_2)">
<path d="M405.333 0H106.667C78.3873 0.0338743 51.2759 11.2828 31.2794 31.2794C11.2828 51.2759 0.0338743 78.3873 0 106.667L0 405.333C0.0338743 433.613 11.2828 460.724 31.2794 480.721C51.2759 500.717 78.3873 511.966 106.667 512H405.333C433.613 511.966 460.724 500.717 480.721 480.721C500.717 460.724 511.966 433.613 512 405.333V106.667C511.966 78.3873 500.717 51.2759 480.721 31.2794C460.724 11.2828 433.613 0.0338743 405.333 0ZM106.667 42.6667H405.333C422.307 42.6667 438.586 49.4095 450.588 61.4118C462.591 73.4142 469.333 89.6928 469.333 106.667V405.333C469.297 414.837 467.109 424.209 462.933 432.747L267.456 237.269C257.551 227.361 245.791 219.502 232.847 214.14C219.904 208.777 206.031 206.017 192.021 206.017C178.011 206.017 164.139 208.777 151.195 214.14C138.252 219.502 126.492 227.361 116.587 237.269L42.6667 311.168V106.667C42.6667 89.6928 49.4095 73.4142 61.4118 61.4118C73.4142 49.4095 89.6928 42.6667 106.667 42.6667ZM106.667 469.333C89.6928 469.333 73.4142 462.591 61.4118 450.588C49.4095 438.586 42.6667 422.307 42.6667 405.333V371.499L146.731 267.435C152.674 261.487 159.731 256.77 167.499 253.551C175.266 250.332 183.592 248.675 192 248.675C200.408 248.675 208.734 250.332 216.501 253.551C224.269 256.77 231.326 261.487 237.269 267.435L432.747 462.933C424.209 467.109 414.837 469.297 405.333 469.333H106.667Z" fill="white"/>
<path d="M341.335 224.001C356.102 224.001 370.538 219.622 382.817 211.418C395.096 203.213 404.666 191.552 410.318 177.908C415.969 164.265 417.448 149.252 414.567 134.768C411.686 120.284 404.574 106.98 394.132 96.5374C383.69 86.095 370.385 78.9837 355.901 76.1027C341.417 73.2217 326.404 74.7003 312.761 80.3517C299.117 86.003 287.456 95.5732 279.252 107.852C271.047 120.131 266.668 134.567 266.668 149.335C266.668 169.138 274.535 188.129 288.537 202.132C302.54 216.135 321.532 224.001 341.335 224.001ZM341.335 117.335C347.664 117.335 353.851 119.211 359.113 122.728C364.375 126.244 368.477 131.242 370.899 137.089C373.321 142.936 373.954 149.37 372.72 155.578C371.485 161.785 368.437 167.487 363.962 171.962C359.487 176.437 353.785 179.485 347.578 180.72C341.37 181.955 334.936 181.321 329.089 178.899C323.242 176.477 318.244 172.375 314.728 167.113C311.211 161.851 309.335 155.664 309.335 149.335C309.335 140.848 312.706 132.708 318.707 126.707C324.708 120.706 332.848 117.335 341.335 117.335Z" fill="white"/>
</g>
<defs>
<clipPath id="clip0_458_2">
<rect width="512" height="512" fill="white"/>
</clipPath>
</defs>
</svg>
