<svg width="512" height="512" viewBox="0 0 512 512" fill="none" xmlns="http://www.w3.org/2000/svg">
<path d="M256 0C114.837 0 0 114.837 0 256C0 397.163 114.837 512 256 512C397.163 512 512 397.163 512 256C512 114.837 397.163 0 256 0ZM170.667 451.499V448C170.667 400.939 208.939 362.667 256 362.667C303.061 362.667 341.333 400.939 341.333 448V451.499C315.179 462.955 286.336 469.333 256 469.333C225.664 469.333 196.821 462.955 170.667 451.499ZM382.4 427.755C372.672 366.763 319.701 320 256 320C192.299 320 139.349 366.763 129.6 427.755C76.9067 388.864 42.6667 326.357 42.6667 256C42.6667 138.368 138.368 42.6667 256 42.6667C373.632 42.6667 469.333 138.368 469.333 256C469.333 326.357 435.093 388.864 382.4 427.755ZM256 106.667C208.939 106.667 170.667 144.939 170.667 192C170.667 239.061 208.939 277.333 256 277.333C303.061 277.333 341.333 239.061 341.333 192C341.333 144.939 303.061 106.667 256 106.667ZM256 234.667C232.469 234.667 213.333 215.531 213.333 192C213.333 168.469 232.469 149.333 256 149.333C279.531 149.333 298.667 168.469 298.667 192C298.667 215.531 279.531 234.667 256 234.667Z" fill="white"/>
</svg>
