<svg width="512" height="512" viewBox="0 0 512 512" fill="none" xmlns="http://www.w3.org/2000/svg">
<g clip-path="url(#clip0_455_29)">
<path d="M256 341.333C239.123 341.333 222.624 336.329 208.591 326.952C194.558 317.576 183.621 304.248 177.162 288.656C170.704 273.063 169.014 255.905 172.306 239.352C175.599 222.799 183.726 207.594 195.66 195.66C207.594 183.726 222.799 175.599 239.352 172.306C255.905 169.014 273.063 170.704 288.656 177.162C304.248 183.621 317.576 194.558 326.952 208.591C336.329 222.624 341.333 239.123 341.333 256C341.333 278.632 332.343 300.337 316.34 316.34C300.337 332.343 278.632 341.333 256 341.333ZM121.237 341.333H21.3333C15.6754 341.333 10.2492 339.086 6.24839 335.085C2.24761 331.084 0 325.658 0 320C0.202151 289.368 11.3435 259.816 31.4145 236.674C51.4856 213.532 79.1653 198.324 109.461 193.792C112.982 193.299 116.57 193.693 119.899 194.939C123.228 196.185 126.193 198.243 128.525 200.927C130.857 203.61 132.481 206.834 133.25 210.304C134.019 213.775 133.908 217.383 132.928 220.8C129.659 232.248 128 244.095 128 256C128.006 274.981 132.279 293.719 140.501 310.827C142.048 314.074 142.748 317.659 142.538 321.25C142.327 324.84 141.212 328.319 139.296 331.363C137.38 334.407 134.726 336.918 131.58 338.661C128.434 340.404 124.898 341.323 121.301 341.333H121.237ZM362.667 512H149.333C143.675 512 138.249 509.752 134.248 505.752C130.248 501.751 128 496.325 128 490.667C128 456.719 141.486 424.162 165.49 400.157C189.495 376.152 222.052 362.667 256 362.667C289.948 362.667 322.505 376.152 346.51 400.157C370.514 424.162 384 456.719 384 490.667C384 496.325 381.752 501.751 377.752 505.752C373.751 509.752 368.325 512 362.667 512ZM384 170.667C367.123 170.667 350.624 165.662 336.591 156.285C322.558 146.909 311.621 133.582 305.162 117.989C298.704 102.396 297.014 85.2387 300.306 68.6857C303.599 52.1326 311.726 36.9277 323.66 24.9936C335.594 13.0595 350.799 4.9323 367.352 1.63969C383.905 -1.65291 401.063 0.0369733 416.656 6.49565C432.248 12.9543 445.576 23.8917 454.952 37.9247C464.329 51.9577 469.333 68.456 469.333 85.3334C469.333 107.965 460.343 129.67 444.34 145.673C428.337 161.676 406.632 170.667 384 170.667ZM128 170.667C111.123 170.667 94.6243 165.662 80.5913 156.285C66.5583 146.909 55.621 133.582 49.1623 117.989C42.7036 102.396 41.0137 85.2387 44.3063 68.6857C47.5989 52.1326 55.7261 36.9277 67.6602 24.9936C79.5943 13.0595 94.7993 4.9323 111.352 1.63969C127.905 -1.65291 145.063 0.0369733 160.656 6.49565C176.248 12.9543 189.576 23.8917 198.952 37.9247C208.329 51.9577 213.333 68.456 213.333 85.3334C213.333 107.965 204.343 129.67 188.34 145.673C172.337 161.676 150.632 170.667 128 170.667ZM490.667 341.333H390.763C387.166 341.323 383.63 340.404 380.484 338.661C377.338 336.918 374.684 334.407 372.768 331.363C370.852 328.319 369.737 324.84 369.526 321.25C369.316 317.659 370.016 314.074 371.563 310.827C379.763 293.714 384.014 274.977 384 256C383.965 244.09 382.271 232.243 378.965 220.8C377.98 217.373 377.869 213.754 378.643 210.273C379.416 206.793 381.05 203.561 383.395 200.875C385.74 198.188 388.721 196.133 392.065 194.895C395.409 193.658 399.01 193.279 402.539 193.792C432.835 198.324 460.514 213.532 480.586 236.674C500.657 259.816 511.798 289.368 512 320C512 325.658 509.752 331.084 505.752 335.085C501.751 339.086 496.325 341.333 490.667 341.333Z" fill="white"/>
</g>
<defs>
<clipPath id="clip0_455_29">
<rect width="512" height="512" fill="white"/>
</clipPath>
</defs>
</svg>
